<svg id="Capa_1" enable-background="new 0 0 512 512" height="512" viewBox="0 0 512 512" width="512" xmlns="http://www.w3.org/2000/svg"><g><g><circle cx="121.551" cy="228.583" r="10.001"/><path d="m157.929 248.584c-5.523 0-10.001 4.477-10.001 10s4.478 10 10.001 10 10-4.477 10-10-4.477-10-10-10z"/><circle cx="276.444" cy="311.121" r="10"/><circle cx="192.514" cy="385.445" r="10"/><circle cx="239.185" cy="248.584" r="10"/><circle cx="212.515" cy="358.558" r="10.001"/><circle cx="296.445" cy="408.618" r="10.001"/><circle cx="121.551" cy="342.949" r="10"/><path d="m392.958 179.612h-42.582v-22.084c0-8.832-2.601-17.376-7.522-24.708l-14.358-21.399c11.85-2.583 20.753-13.151 20.753-25.764 0-14.542-11.831-26.372-26.373-26.372h-43.656l5.503-32.592c1.123-6.655-.731-13.428-5.087-18.583-4.358-5.154-10.728-8.11-17.477-8.11-11.216 0-20.707 8.028-22.567 19.089l-6.759 40.197h-138.555c-14.542 0-26.373 11.831-26.373 26.372 0 12.613 8.903 23.181 20.752 25.764l-14.358 21.398c-4.921 7.333-7.522 15.877-7.522 24.708v268.647c0 24.541 17.505 45.067 40.683 49.756v16.563c0 10.753 8.749 19.502 19.501 19.502h22.356c4.138 0 7.494-3.355 7.494-7.494s-3.355-7.494-7.494-7.494h-22.356c-2.489 0-4.514-2.025-4.514-4.514v-15.553h172.257v15.557c0 2.489-2.025 4.514-4.514 4.514l-105.573-.002c-4.138 0-7.494 3.355-7.494 7.494s3.355 7.494 7.494 7.494l105.574.002c10.753 0 19.501-8.749 19.501-19.502v-16.571c15.427-3.124 28.335-13.263 35.245-26.935h48.01c28.825 0 52.275-23.45 52.275-52.274v-164.841c.001-28.819-23.446-52.265-52.264-52.265zm-62.549-38.441c3.257 4.854 4.979 10.511 4.979 16.357v10.38c-11.129 9.766-24.43 16.899-38.661 20.702-13.076 3.493-26.467 4.484-39.982 3.771l13.526-80.098h40.754zm-76.036-119.597c.641-3.817 3.917-6.587 7.786-6.587 2.363 0 4.504.994 6.03 2.798 1.525 1.805 2.149 4.082 1.755 6.413l-5.925 35.087h-15.988zm-171.48 64.084c0-6.277 5.107-11.385 11.385-11.385h228.597c6.278 0 11.385 5.107 11.385 11.385s-5.107 11.385-11.385 11.385h-228.597c-6.278 0-11.385-5.108-11.385-11.385zm172.177 26.625-13.282 78.657c-5.142-.708-10.292-1.618-15.441-2.693l12.773-75.963h15.95zm-168.326 28.888 19.384-28.888h117.793l-12.192 72.51c-13.484-3.533-26.751-7.884-39.937-12.343-28.831-9.75-58.567-19.784-89.05-22.377.828-3.149 2.16-6.156 4.002-8.902zm256.138 147.792c-4.139 0-7.494 3.355-7.494 7.494v129.719c0 19.728-16.05 35.778-35.778 35.778h-182.066c-19.729 0-35.779-16.05-35.779-35.778 0 0 0-261.144.002-261.143 15.562 1.355 30.868 4.794 45.875 9.039 45.411 12.846 89.352 33.447 137.522 33.447 11.915 0 23.788-1.318 35.431-4.429 12.421-3.319 24.222-8.836 34.793-16.191v74.366c0 4.139 3.354 7.494 7.494 7.494s7.494-3.355 7.494-7.494v-29.696h37.24c5.212 0 9.453 4.241 9.453 9.453v146.551c0 5.212-4.241 9.453-9.453 9.453h-37.24v-100.569c0-4.139-3.355-7.494-7.494-7.494zm87.353 107.755c0 20.56-16.727 37.287-37.287 37.287h-43.177c.397-2.553.605-5.167.605-7.829v-14.163h37.24c13.477 0 24.441-10.964 24.441-24.44v-146.551c0-13.477-10.964-24.441-24.441-24.441h-37.24v-21.981h42.582c20.555 0 37.278 16.722 37.278 37.278v164.84z"/></g></g></svg>