<?xml version="1.0" encoding="iso-8859-1"?>
<!-- Generator: Adobe Illustrator 19.0.0, SVG Export Plug-In . SVG Version: 6.00 Build 0)  -->
<svg version="1.1" id="Capa_1" xmlns="http://www.w3.org/2000/svg" xmlns:xlink="http://www.w3.org/1999/xlink" x="0px" y="0px"
	 viewBox="0 0 464.005 464.005" style="enable-background:new 0 0 464.005 464.005;" xml:space="preserve">
<g>
	<g>
		<path d="M342.502,159.32h-3c-4.4-44.011-40.864-77.869-85.08-79l40.68-63.44h51.4c0.002,0,0.005,0,0.007,0
			c4.661-0.002,8.438-3.782,8.436-8.444c-0.002-4.661-3.782-8.438-8.443-8.436h-56c-2.891,0.026-5.566,1.537-7.08,4l-48.88,76.2
			l-23.04,0.12c-44.953,0.165-82.513,34.271-87,79h-3c-14.658,0-26.54,11.882-26.54,26.54s11.882,26.54,26.54,26.54l4.8,47.24
			c-0.036,0.453-0.036,0.907,0,1.36l14.12,140l2.76,27.32c0.954,9.834,5.513,18.967,12.8,25.64c7.3,6.581,16.813,10.166,26.64,10.04
			h98.72c9.888,0.155,19.466-3.447,26.8-10.08c7.287-6.672,11.846-15.806,12.8-25.64l2.68-26.64c0.034-0.439,0.034-0.881,0-1.32
			v-1.12l14.04-139l4.84-47.8c14.658,0,26.54-11.882,26.54-26.54C369.042,171.202,357.16,159.32,342.502,159.32z M211.502,97.24
			h12.2l-1.76,2.76c-1.805,3.612-0.785,7.997,2.429,10.441c3.693,2.808,8.963,2.092,11.771-1.601l7.52-11.68h8.8
			c35.674,0.132,65.691,26.757,70.08,62.16h-181.12C145.848,123.948,175.855,97.367,211.502,97.24z M303.982,426.68
			c-0.561,5.696-3.211,10.983-7.44,14.84c-4.169,3.748-9.595,5.79-15.2,5.72h-98.72c-5.605,0.07-11.031-1.972-15.2-5.72
			c-4.217-3.861-6.853-9.148-7.4-14.84l-1.84-18.08h147.64L303.982,426.68z M307.462,392h-150.96l-12.52-124h176L307.462,392z
			 M321.662,251h-179.28l-4-38.6h187.28L321.662,251z M342.542,195.56h-221.12c-5.345-0.001-9.678-4.334-9.679-9.679
			c-0.001-5.346,4.332-9.681,9.679-9.681h221.12c5.345,0.001,9.678,4.334,9.679,9.679
			C352.222,191.225,347.889,195.559,342.542,195.56z"/>
	</g>
</g>
<g>
</g>
<g>
</g>
<g>
</g>
<g>
</g>
<g>
</g>
<g>
</g>
<g>
</g>
<g>
</g>
<g>
</g>
<g>
</g>
<g>
</g>
<g>
</g>
<g>
</g>
<g>
</g>
<g>
</g>
</svg>
